<?xml version="1.0" encoding="utf-8"?>
<!-- Generator: Adobe Illustrator 16.0.0, SVG Export Plug-In . SVG Version: 6.00 Build 0)  -->
<!DOCTYPE svg PUBLIC "-//W3C//DTD SVG 1.1//EN" "http://www.w3.org/Graphics/SVG/1.1/DTD/svg11.dtd">
<svg version="1.1" id="Layer_1" xmlns="http://www.w3.org/2000/svg" xmlns:xlink="http://www.w3.org/1999/xlink" x="0px" y="0px"
	 width="663.964px" height="93.094px" viewBox="0 0 663.964 93.094" enable-background="new 0 0 663.964 93.094"
	 xml:space="preserve">
<g>
	<path fill="#fff" d="M53.229,60.794l9.938-16.15v48.368H52.235V64.273l-1.077,1.656v24.599h-35.78v2.484H2.46V37.936
		l4.141,6.875v-8.283l26.916,44.475l18.719-30.644v-7.868L38.485,64.77l-3.064-5.053l-4.803,7.869L10.658,35.12h10.685
		l14.078,22.775l13.998-22.61h13.168l-9.357,15.322V60.794z M14.386,92.018v-1.49H6.601V46.715l-3.146-5.218v50.521H14.386z
		 M52.235,62.368V52.18L33.517,82.908L7.593,40.006v6.377l7.785,13.003v30.229h34.869V65.68L52.235,62.368z M14.386,89.616v-29.98
		L7.593,48.288v41.328H14.386z M30.618,65.68l4.224-6.873L20.763,36.114h-8.364L30.618,65.68z M38.485,62.948l14.744-23.853v9.607
		l7.618-12.506H49.916l-13.914,22.61L38.485,62.948z M62.173,92.018V48.123L53.229,62.7v29.318H62.173z"/>
	<path fill="#fff" d="M66.892,93.012l19.713-46.794h3.312l2.236-5.301h4.306l2.485-5.88h5.301l2.401,5.88h2.982l21.947,52.095
		h-15.239l-4.059-9.691H90.33l-3.809,9.691H66.892z M85.857,92.018l3.48-8.697H78.487l5.302-12.505h-3.977l9.691-23.604h-2.236
		L68.385,92.018H85.857z M89.669,82.329l2.484-6.213h17.228l-2.237-5.3H84.866l-4.888,11.513H89.669z M81.303,69.822h2.899
		l9.525-22.609H90.58L81.303,69.822z M85.279,69.822h21.45l-9.276-22.609h-2.65L85.279,69.822z M111.864,82.329l-2.152-5.219H92.815
		l-2.07,5.219H111.864z M96.046,41.911h-3.23l-1.822,4.308h3.23L96.046,41.911z M120.146,76.116l-14.079-34.205h-8.944l-1.905,4.308
		h2.896l9.691,23.604h5.218l2.567,6.294H120.146z M105.652,40.917l-2.07-4.886h-3.975l-2.071,4.886H105.652z M130.167,92.018
		l-21.202-50.107h-1.903l14.493,35.199h-5.549l2.566,6.211h-5.217l3.561,8.697H130.167z M112.361,70.816h-4.141l2.153,5.3h4.141
		L112.361,70.816z M117.083,82.329l-2.154-5.219h-4.142l2.154,5.219H117.083z"/>
	<path fill="#fff" d="M168.845,60.131l20.457,29.815h-6.626l2.154,3.147H146.4v-3.147h-10.685l-0.083-54.827h11.762v1.822h5.136
		v19.96l13.084-14.411h6.791l6.626-7.371h12.59L168.845,60.131z M146.4,89.037V77.194l-5.384,5.879V36.942h5.384v-0.828h-9.773
		l0.083,52.923H146.4z M146.4,71.065l5.136-5.633v-5.963l-5.136,5.632V37.936h-4.389v42.569l4.389-4.804V71.065z M147.395,37.936
		v24.598l4.142-4.555V37.936H147.395z M183.008,92.1l-1.491-2.153h-4.64l-16.978-24.598l6.46-7.122l-1.159-1.739l-12.67,13.913
		v19.546h-0.498h-4.638V92.1H183.008z M151.536,66.923l-4.142,4.556v3.146l4.142-4.555V66.923z M147.395,76.116v12.921h4.142V71.561
		L147.395,76.116z M152.53,65.764v3.229l12.753-14.079l1.738,2.567l12.838-13.997h-7.038L152.53,65.764z M152.53,58.393v5.963
		l18.966-20.871h-5.466L152.53,58.393z M167.603,60.049l-0.664-0.994l-5.715,6.377l16.152,23.604h3.478L163.876,64.19
		L167.603,60.049z M182.013,89.037h5.467l-19.297-28.159l-3.064,3.396L182.013,89.037z M179.446,36.114l-5.715,6.377h8.281
		l-14.41,15.819l0.745,0.993l21.037-23.189H179.446z"/>
	<path fill="#fff" d="M196.176,92.929V37.853h14.245v-2.899h29.483v2.899h2.65v55.076H196.176z M241.644,91.935V38.847h-1.739
		v9.441h-28.491v8.2h17.808v13.417h-17.808v9.275h29.153v10.602h-35.944V68.994h5.799V57.482h-5.799V47.294h5.799v-8.448H197.17
		v53.088H241.644z M210.421,56.488v-8.2h-4.805v8.2H210.421z M239.573,88.788v-8.613h-29.152v-10.27h-4.805v18.883H239.573z
		 M238.993,37.853v-1.905h-27.58v1.905H238.993z M238.993,47.294v-8.448h-27.58v8.448H238.993z M228.227,68.994V57.482h-16.813
		v11.512H228.227z"/>
	<path fill="#fff" d="M262.099,93.094h-9.027v-4.141h-5.963V52.264h5.963v-10.85h-5.715v-6.377h10.437
		c2.759,0,5.437,0.014,8.033,0.041c2.595,0.028,4.444,0.042,5.549,0.042c1.16,0,2.388,0.014,3.687,0.042
		c1.296,0.028,2.25,0.07,2.856,0.124c4.472,0.332,8.088,1.381,10.85,3.148c2.981,1.822,4.97,4.417,5.962,7.785
		c0.11,0.221,0.22,0.608,0.332,1.159c0.109,0.552,0.221,1.16,0.332,1.822c0.055,0.387,0.082,0.925,0.082,1.615
		c0,0.691,0,1.091,0,1.2c0,0.884-0.098,1.934-0.291,3.147c-0.192,1.215-0.509,2.348-0.951,3.396
		c-0.939,2.318-2.236,4.223-3.894,5.714l-0.331,0.248l-2.152-1.905l0.414-0.33c1.38-1.27,2.429-2.816,3.146-4.639
		c0.498-1.214,0.828-2.456,0.994-3.727v-0.083c0.055-0.386,0.082-0.772,0.082-1.159c0-0.386,0-0.772,0-1.16
		c0-0.054-0.014-0.317-0.039-0.787c-0.029-0.468-0.043-0.841-0.043-1.118c-0.111-0.44-0.206-0.897-0.289-1.367
		c-0.084-0.468-0.182-0.841-0.29-1.118c-0.829-2.815-2.484-4.969-4.97-6.46c-2.319-1.491-5.439-2.402-9.357-2.733
		c-0.443-0.055-1.532-0.096-3.273-0.124c-1.736-0.027-3.768-0.042-6.087-0.042c-2.318,0-4.75,0-7.288,0c-2.54,0-4.803,0-6.791,0
		v2.816c2.042,0,4.307,0,6.791,0c2.486,0,4.859,0,7.124,0c2.264,0,4.224,0.014,5.88,0.042c1.657,0.028,2.65,0.042,2.981,0.042
		c3.146,0.276,5.658,1.02,7.535,2.232c2.098,1.322,3.479,3.141,4.142,5.455l0.249,0.744c0.055,0.22,0.095,0.441,0.124,0.661
		c0.026,0.22,0.069,0.441,0.123,0.662c0,0.22,0.015,0.744,0.043,1.571c0.026,0.827-0.014,1.626-0.124,2.396v0.083
		c-0.166,0.883-0.415,1.681-0.744,2.396c-0.555,1.434-1.493,2.701-2.818,3.803c-1.324,1.102-2.623,1.928-3.894,2.479l13.004,18.846
		h-4.224l7.619,10.933H285.62l-20.209-29.07h-3.312V93.094z M248.103,53.258v34.701h4.969V53.258H248.103z M289.348,62.616
		l0.661,0.58c1.437-1.379,2.539-3.035,3.313-4.969c0.386-0.994,0.689-2.084,0.911-3.271c0.22-1.187,0.331-2.166,0.331-2.94
		c0-0.109-0.015-0.509-0.041-1.2c-0.028-0.69-0.07-1.202-0.125-1.533c-0.11-0.606-0.221-1.159-0.33-1.656
		c-0.111-0.497-0.196-0.883-0.248-1.16c-0.994-3.091-2.846-5.493-5.55-7.205c-2.65-1.656-6.129-2.65-10.436-2.982
		c-0.993-0.054-3.118-0.137-6.377-0.248h-23.19v4.555h4.804v-3.81h11.348c1.435,0,2.884,0,4.347,0c1.465,0,2.789,0.014,3.977,0.042
		c1.188,0.028,2.222,0.055,3.104,0.083c0.884,0.029,1.465,0.042,1.741,0.042c3.976,0.332,7.231,1.298,9.771,2.899
		c2.649,1.602,4.444,3.921,5.385,6.957c0.055,0.056,0.15,0.373,0.288,0.953c0.138,0.58,0.235,1.174,0.29,1.781
		c0.055,0.276,0.096,0.662,0.124,1.159c0.026,0.497,0.042,0.774,0.042,0.828c0,0.443,0,0.857,0,1.243s-0.055,0.773-0.166,1.159
		v0.082c-0.166,1.438-0.496,2.763-0.994,3.977c-0.331,0.883-0.761,1.711-1.282,2.484C290.52,61.237,289.955,61.954,289.348,62.616z
		 M289.596,81.002h3.065l-12.756-18.447l0.664-0.166c1.268-0.441,2.578-1.201,3.934-2.279c1.351-1.076,2.276-2.279,2.773-3.607
		c0.166-0.33,0.289-0.689,0.373-1.076s0.179-0.773,0.289-1.162v-0.082c0.111-0.663,0.165-1.396,0.165-2.197
		c0-0.802-0.028-1.313-0.083-1.534c-0.054-0.22-0.082-0.414-0.082-0.58c0-0.166-0.055-0.358-0.165-0.581
		c0-0.166-0.057-0.415-0.165-0.746c-0.663-2.1-1.906-3.73-3.727-4.892c-1.769-1.104-4.142-1.796-7.123-2.073
		c-0.331,0-1.312-0.012-2.939-0.041c-1.629-0.027-3.575-0.041-5.839-0.041c-2.265,0-4.638-0.013-7.124-0.042
		c-2.484-0.027-4.749-0.042-6.791-0.042v10.85h4.473v-8.282h0.414c0.166,0,1.061,0,2.692,0c1.627,0,3.422,0,5.382,0
		s3.797,0.014,5.509,0.041c1.712,0.029,2.733,0.042,3.064,0.042c2.207,0.166,4.084,0.72,5.631,1.66
		c1.545,0.942,2.568,2.298,3.065,4.069c0.109,0.277,0.177,0.552,0.207,0.83c0.026,0.277,0.068,0.554,0.123,0.831
		c0.055,0.332,0.082,0.664,0.082,0.996c0,0.996-0.11,1.854-0.331,2.573v0.083c-0.11,0.443-0.222,0.804-0.33,1.079
		c-0.609,1.606-1.615,2.853-3.022,3.737c-1.409,0.885-3.078,1.383-5.01,1.494L289.596,81.002z M254.065,53.258v34.701h4.307V62.866
		h2.817v-2.982h-2.651v-6.625H254.065z M254.065,92.1h7.206V63.859h-1.823v25.095h-5.383V92.1z M285.041,81.002h3.396L274.192,60.38
		h0.91h0.744c2.32-0.11,4.016-0.648,5.093-1.615c1.077-0.966,1.809-1.946,2.196-2.939c0.055-0.166,0.109-0.317,0.166-0.456
		c0.054-0.137,0.109-0.29,0.164-0.455v-0.083c0.166-0.718,0.249-1.519,0.249-2.401c0-0.111-0.028-0.441-0.083-0.994
		c-0.055-0.552-0.138-0.994-0.249-1.326c-0.495-1.545-1.406-2.733-2.731-3.561c-1.215-0.828-2.927-1.325-5.134-1.491
		c-0.277,0-1.148-0.013-2.61-0.042c-1.464-0.027-3.078-0.042-4.846-0.042s-3.47,0-5.108,0c-1.64,0-2.78,0-3.422,0v7.289h2.567v6.709
		h7.537L285.041,81.002z M259.531,58.973h1.74v-5.715h-1.74V58.973z M286.118,91.935h9.855l-6.876-9.938h-4.638l-15.321-22.113
		h-7.04v2.982h3.811L286.118,91.935z"/>
</g>
<g>
	<g>
		<path fill="#fff" d="M302.968,78.698l11.153-6.934c3.316,5.352,8.817,8.441,14.62,8.441c4.598,0,8.064-1.356,8.064-4.823
			c0-3.542-4.446-4.898-9.948-6.255c-9.119-2.336-21.252-4.673-21.252-17.334c0-11.38,8.591-17.635,21.252-17.635
			c11.832,0,18.916,5.501,23.362,10.928l-10.099,8.289c-3.09-3.768-8.516-7.008-13.339-7.008c-4.296,0-6.481,1.432-6.481,4.069
			c0,3.692,4.371,5.05,9.873,6.405c9.118,2.186,21.327,4.975,21.327,17.484c0,8.894-6.255,17.711-23.438,17.711
			C315.327,92.038,307.715,86.31,302.968,78.698z"/>
		<path fill="#fff" d="M372.455,90.983V47.724h-16.053v-12.51h47.178v12.51h-16.053v43.259H372.455z"/>
		<path fill="#fff" d="M411.191,68.6V35.214h15.073v33.31c0,7.688,2.486,11.154,8.516,11.154s8.44-3.467,8.44-11.154v-33.31
			h14.771V68.6c0,14.771-7.084,23.211-23.362,23.211S411.191,83.371,411.191,68.6z"/>
		<path fill="#fff" d="M469.524,90.983V35.214h18.313c16.579,0,30.673,6.331,30.673,27.507c0,21.931-14.319,28.262-30.673,28.262
			H469.524z M484.521,78.849h4.146c11.379,0,14.771-4.673,14.771-15.978c0-10.324-3.467-15.147-14.922-15.147h-3.994V78.849z"/>
		<path fill="#fff" d="M528.986,90.983V35.214h15.072v55.769H528.986z"/>
		<path fill="#fff" d="M554.535,63.098c0-20.423,13.942-28.939,27.432-28.939c13.415,0,27.357,8.516,27.357,28.939
			c0,20.424-13.942,28.939-27.357,28.939C568.478,92.038,554.535,83.522,554.535,63.098z M594.251,63.098
			c0-10.25-4.446-16.504-12.284-16.504c-7.913,0-12.359,6.254-12.359,16.504s4.446,16.881,12.359,16.881
			C589.805,79.979,594.251,73.348,594.251,63.098z"/>
		<path fill="#fff" d="M615.431,78.698l11.153-6.934c3.316,5.352,8.817,8.441,14.62,8.441c4.598,0,8.064-1.356,8.064-4.823
			c0-3.542-4.446-4.898-9.948-6.255c-9.119-2.336-21.252-4.673-21.252-17.334c0-11.38,8.591-17.635,21.252-17.635
			c11.832,0,18.916,5.501,23.362,10.928l-10.099,8.289c-3.09-3.768-8.516-7.008-13.339-7.008c-4.296,0-6.481,1.432-6.481,4.069
			c0,3.692,4.371,5.05,9.873,6.405c9.118,2.186,21.327,4.975,21.327,17.484c0,8.894-6.255,17.711-23.438,17.711
			C627.79,92.038,620.178,86.31,615.431,78.698z"/>
	</g>
</g>
<g>
	<g>
		<path fill="#fff" d="M0,22.617V0h6.113v17.696h9.505v4.921H0z"/>
		<path fill="#fff" d="M17.422,11.308c0-8.283,5.654-11.736,11.125-11.736c5.44,0,11.095,3.454,11.095,11.736
			s-5.654,11.736-11.095,11.736C23.076,23.044,17.422,19.591,17.422,11.308z M33.529,11.308c0-4.156-1.804-6.693-4.982-6.693
			c-3.209,0-5.013,2.537-5.013,6.693c0,4.157,1.804,6.846,5.013,6.846C31.726,18.154,33.529,15.465,33.529,11.308z"/>
		<path fill="#fff" d="M43.706,22.617V0h6.021l8.282,12.684h0.062V0h5.593v22.617H58.01L49.36,9.963H49.3v12.653H43.706z"/>
		<path fill="#fff" d="M67.729,11.217c0-7.091,3.912-11.645,10.636-11.645c4.279,0,7.947,1.437,9.536,7.366l-5.593,1.559
			c-0.887-2.904-2.201-3.882-3.974-3.882c-2.231,0-4.462,1.467-4.462,6.51c0,6.327,3.117,7.029,4.737,7.029
			c1.956,0,3.331-1.069,3.973-2.72h-3.301v-4.462h9.108v11.645h-4.799v-2.995H83.53c-0.306,1.1-2.293,3.423-5.686,3.423
			C70.632,23.044,67.729,18.032,67.729,11.217z"/>
		<path fill="#fff" d="M93.432,0h6.113v8.405h7.519V0h6.112v22.617h-6.112v-9.139h-7.519v9.139h-6.113V0z"/>
		<path fill="#fff" d="M117.24,11.308c0-8.283,5.654-11.736,11.125-11.736c5.44,0,11.095,3.454,11.095,11.736
			s-5.654,11.736-11.095,11.736C122.895,23.044,117.24,19.591,117.24,11.308z M133.348,11.308c0-4.156-1.804-6.693-4.982-6.693
			c-3.209,0-5.013,2.537-5.013,6.693c0,4.157,1.804,6.846,5.013,6.846C131.544,18.154,133.348,15.465,133.348,11.308z"/>
		<path fill="#fff" d="M143.524,22.617V0h8.833c5.808,0,9.353,1.925,9.353,7.366c0,3.545-1.497,5.593-4.462,6.602l4.798,8.649
			h-6.479l-4.37-7.855h-1.681v7.855H143.524z M149.516,10.116h2.628c2.507,0,3.606-0.703,3.606-2.598s-1.1-2.567-3.606-2.567h-2.628
			V10.116z"/>
		<path fill="#fff" d="M166.417,22.617V0h6.021l8.282,12.684h0.062V0h5.593v22.617h-5.654l-8.649-12.653h-0.061v12.653H166.417z"
			/>
		<path fill="#fff" d="M190.684,6.602c0-3.943,3.148-7.121,7.091-7.121c3.943,0,7.061,3.148,7.061,7.121
			s-3.117,7.121-7.061,7.121C193.802,13.723,190.684,10.575,190.684,6.602z M203.888,6.602c0-3.423-2.721-6.205-6.113-6.205
			c-3.423,0-6.112,2.781-6.112,6.205c0,3.454,2.689,6.204,6.112,6.204C201.198,12.806,203.888,10.055,203.888,6.602z M195.146,2.537
			h2.751c1.772,0,2.781,0.794,2.781,2.201c0,1.284-0.673,1.925-1.712,2.139l1.926,3.545h-1.162l-1.864-3.393h-1.619v3.393h-1.101
			V2.537z M197.836,6.112c1.101,0,1.772-0.336,1.772-1.345c0-0.917-0.672-1.253-1.803-1.253h-1.559v2.598H197.836z"/>
	</g>
</g>
</svg>
